<?xml version="1.0" encoding="utf-8"?>
<svg version="1.1" id="Layer_1" xmlns="http://www.w3.org/2000/svg" xmlns:xlink="http://www.w3.org/1999/xlink" viewBox="0 0 300 400" xml:space="preserve">
<path d="M150.2,133c19.5-18.4,46.2-28.5,72.5-28.5c22.5,0,40.5,4.9,49.9,10.5l10.1-25.2c-6.8-5.3-26.7-12.4-54.8-12.4
  c-37.2,0-69.4,12-95.4,34.2c-7.8,6.5-14.9,13.8-21.1,21.8L127,53.3h143.2l7.2-39.3H88.3L17.5,386.6h45.9l21.3-111.9
  c13.3,40,47.4,63.5,96.3,63.5c28.5,0,51.4-5.6,65.7-12l-4.1-25.5c-13.9,7.1-34.9,10.9-54.1,10.9c-56.3,0-77-37.2-77-82.6
  c0-3.7,0.1-7.4,0.4-11H227l7.7-39.3H120.5C127.2,160.7,137.4,144.9,150.2,133z"/>
</svg>
