<svg version="1.1" id="Layer_1" xmlns="http://www.w3.org/2000/svg" xmlns:xlink="http://www.w3.org/1999/xlink" viewBox="0 0 300 400" xml:space="preserve">
<g>
  <path d="M151.9,82l-31.4,105.5h35c15.7,0,27.5-2.4,35.3-7.3c7.8-4.8,15.8-15.2,24.1-31h7.5l-27.7,97.1h-7.9
    c2-7.9,2.9-14.3,2.9-19.5c0-8-2.7-14.2-8-18.6c-5.3-4.4-15.2-6.6-29.8-6.6h-35.4l-23.2,80.4c-4.2,14.3-6.3,23.8-6.3,28.5
    c0,4.8,1.8,8.6,5.4,11.2c3.6,2.6,12.4,4.4,26.4,5.3l-2.4,7.3H11.2l2.6-7.3c10.2-0.3,17-1.2,20.4-2.8c5.2-2.2,9.1-5.2,11.6-9
    c3.5-5.4,7.7-16.4,12.6-33.2l47-160.5c3.8-13,5.7-23.1,5.7-30.5c0-3.4-0.9-6.3-2.6-8.7c-1.7-2.4-4.2-4.2-7.6-5.4
    c-3.3-1.2-10-1.8-19.9-1.8l2.4-7.3H290l-19.6,67.4h-7.5c1.4-8.1,2.2-14.8,2.2-20c0-8.6-2.4-15.5-7.2-20.5
    c-4.8-5-10.9-8.6-18.4-10.7c-5.2-1.3-17-2-35.2-2H151.9z"/>
</g>
<g>
  <path d="M245.7,116.4l-11.9,51.9h-4.3l-0.5-13c-0.4-4.7-1.3-8.9-2.7-12.6c-1.4-3.7-3.5-6.9-6.4-9.6c-2.8-2.7-6.4-4.8-10.8-6.4
    c-4.3-1.5-9.1-2.3-14.4-2.3c-14.1,0-26.4,3.9-37,11.6c-13.5,9.8-24,23.7-31.7,41.7c-6.3,14.8-9.5,29.8-9.5,45
    c0,15.5,4.5,27.9,13.6,37.2c9.1,9.3,20.8,13.9,35.3,13.9c10.9,0,20.7-2.4,29.2-7.3c8.5-4.9,16.5-12.4,23.8-22.6h5.6
    c-8.7,13.8-18.3,23.9-28.8,30.4c-10.6,6.5-23.2,9.7-37.9,9.7c-13.1,0-24.7-2.7-34.7-8.2c-10.1-5.5-17.8-13.2-23-23.1
    c-5.3-9.9-7.9-20.6-7.9-32c0-17.5,4.7-34.5,14.1-51c9.4-16.5,22.2-29.5,38.6-39c16.3-9.5,32.8-14.2,49.4-14.2
    c7.8,0,16.5,1.9,26.2,5.6c4.3,1.6,7.3,2.4,9.2,2.4c1.9,0,3.5-0.4,5-1.2c1.4-0.8,3.8-3,7.1-6.7H245.7z"/>
</g>
</svg>
